<svg width="124" height="22" viewBox="0 0 124 22" fill="none" xmlns="http://www.w3.org/2000/svg">
<path d="M5.72656 21L0.503906 1.27148H4.7832L7.90039 15.4082H7.98242L11.6191 1.27148H15.2422L18.8789 15.4082H18.9609L22.0918 1.27148H26.3711L21.1348 21H17.1016L13.4785 7.7793H13.3965L9.75977 21H5.72656ZM28.3535 21V1.27148H32.3457V8.87305H32.4277C33.1797 7.05469 34.7246 6.04297 36.9258 6.04297C40.0977 6.04297 42.0664 8.25781 42.0664 11.7988V21H38.0742V12.6191C38.0742 10.5684 37.0625 9.35156 35.2441 9.35156C33.4805 9.35156 32.3457 10.6914 32.3457 12.6055V21H28.3535ZM51.3086 21.3008C46.8242 21.3008 44.1035 18.3887 44.1035 13.6992V13.6855C44.1035 9.02344 46.8516 6.04297 51.1445 6.04297C55.4375 6.04297 58.1309 8.95508 58.1309 13.3848V14.6152H48.041C48.082 16.9531 49.3535 18.3203 51.3906 18.3203C53.0312 18.3203 54.0293 17.418 54.3164 16.5977L54.3438 16.5156H58.0078L57.9668 16.666C57.5156 18.8262 55.4922 21.3008 51.3086 21.3008ZM51.2129 9.02344C49.5723 9.02344 48.3418 10.1172 48.082 12.0996H54.3027C54.0566 10.0762 52.8672 9.02344 51.2129 9.02344ZM66.8672 21.3008C62.3828 21.3008 59.6621 18.3887 59.6621 13.6992V13.6855C59.6621 9.02344 62.4102 6.04297 66.7031 6.04297C70.9961 6.04297 73.6895 8.95508 73.6895 13.3848V14.6152H63.5996C63.6406 16.9531 64.9121 18.3203 66.9492 18.3203C68.5898 18.3203 69.5879 17.418 69.875 16.5977L69.9023 16.5156H73.5664L73.5254 16.666C73.0742 18.8262 71.0508 21.3008 66.8672 21.3008ZM66.7715 9.02344C65.1309 9.02344 63.9004 10.1172 63.6406 12.0996H69.8613C69.6152 10.0762 68.4258 9.02344 66.7715 9.02344ZM77.5859 21V4.67578H71.8848V1.27148H87.4297V4.67578H81.7148V21H77.5859ZM89.7129 21V1.27148H102.783V4.67578H93.8418V9.40625H102.277V12.6328H93.8418V17.5957H102.783V21H89.7129ZM114.541 21.3418C108.771 21.3418 105.148 17.4863 105.148 11.1289V11.1152C105.148 4.75781 108.785 0.929688 114.541 0.929688C119.326 0.929688 122.758 3.95117 123.141 8.13477L123.154 8.25781H119.135L119.08 8.02539C118.615 5.85156 117.002 4.42969 114.541 4.42969C111.383 4.42969 109.359 6.97266 109.359 11.1016V11.1152C109.359 15.2715 111.383 17.8418 114.541 17.8418C116.92 17.8418 118.588 16.4746 119.121 14.1367L119.148 14H123.168L123.154 14.1504C122.771 18.3477 119.312 21.3418 114.541 21.3418Z" class='nav__links-img'/>
</svg>
